<svg xmlns="http://www.w3.org/2000/svg" xmlns:xlink="http://www.w3.org/1999/xlink" width="500" zoomAndPan="magnify" viewBox="0 0 375 374.999991" height="500" preserveAspectRatio="xMidYMid meet" version="1.0"><defs><g/><clipPath id="fcdbac5ddf"><path d="M 27.035156 73 L 166 73 L 166 188 L 27.035156 188 Z M 27.035156 73 " clip-rule="nonzero"/></clipPath></defs><g fill="#000000" fill-opacity="1"><g transform="translate(86.636718, 275.422672)"><g><path d="M 19 0.6875 C 16.539062 0.6875 14.265625 0.265625 12.171875 -0.578125 C 10.085938 -1.421875 8.265625 -2.601562 6.703125 -4.125 C 5.148438 -5.644531 3.941406 -7.425781 3.078125 -9.46875 C 2.222656 -11.519531 1.796875 -13.742188 1.796875 -16.140625 C 1.796875 -18.535156 2.222656 -20.753906 3.078125 -22.796875 C 3.941406 -24.847656 5.148438 -26.632812 6.703125 -28.15625 C 8.265625 -29.675781 10.085938 -30.859375 12.171875 -31.703125 C 14.265625 -32.554688 16.539062 -32.984375 19 -32.984375 C 21.457031 -32.984375 23.734375 -32.554688 25.828125 -31.703125 C 27.921875 -30.859375 29.734375 -29.675781 31.265625 -28.15625 C 32.804688 -26.632812 34.003906 -24.847656 34.859375 -22.796875 C 35.722656 -20.753906 36.15625 -18.535156 36.15625 -16.140625 C 36.15625 -13.742188 35.722656 -11.519531 34.859375 -9.46875 C 34.003906 -7.425781 32.804688 -5.644531 31.265625 -4.125 C 29.734375 -2.601562 27.921875 -1.421875 25.828125 -0.578125 C 23.734375 0.265625 21.457031 0.6875 19 0.6875 Z M 19 -5.90625 C 20.9375 -5.90625 22.664062 -6.347656 24.1875 -7.234375 C 25.707031 -8.128906 26.90625 -9.34375 27.78125 -10.875 C 28.664062 -12.414062 29.109375 -14.171875 29.109375 -16.140625 C 29.109375 -18.078125 28.664062 -19.820312 27.78125 -21.375 C 26.90625 -22.925781 25.707031 -24.148438 24.1875 -25.046875 C 22.664062 -25.941406 20.9375 -26.390625 19 -26.390625 C 17.09375 -26.390625 15.367188 -25.941406 13.828125 -25.046875 C 12.296875 -24.148438 11.082031 -22.925781 10.1875 -21.375 C 9.300781 -19.820312 8.859375 -18.078125 8.859375 -16.140625 C 8.859375 -14.203125 9.300781 -12.457031 10.1875 -10.90625 C 11.082031 -9.351562 12.296875 -8.128906 13.828125 -7.234375 C 15.367188 -6.347656 17.09375 -5.90625 19 -5.90625 Z M 19 -5.90625 "/></g></g></g><g fill="#000000" fill-opacity="1"><g transform="translate(124.597637, 275.422672)"><g><path d="M 25.09375 0 L 17.484375 0 L 12.546875 -8.25 L 7.46875 0 L 0.046875 0 L 8.53125 -12.78125 L 0.59375 -24.90625 L 8.203125 -24.90625 L 12.546875 -17.71875 L 17.15625 -24.90625 L 24.578125 -24.90625 L 16.515625 -13.140625 Z M 25.09375 0 "/></g></g></g><g fill="#000000" fill-opacity="1"><g transform="translate(149.735785, 275.422672)"><g><path d="M 3.234375 -28.234375 L 3.234375 -34.5 L 9.96875 -34.5 L 9.96875 -28.234375 Z M 3.234375 0 L 3.234375 -24.90625 L 9.96875 -24.90625 L 9.96875 0 Z M 3.234375 0 "/></g></g></g><g fill="#000000" fill-opacity="1"><g transform="translate(162.927549, 275.422672)"><g><path d="M 16.09375 -32.28125 C 18.28125 -32.28125 20.226562 -31.796875 21.9375 -30.828125 C 23.644531 -29.859375 25.003906 -28.535156 26.015625 -26.859375 C 27.023438 -25.191406 27.53125 -23.296875 27.53125 -21.171875 C 27.53125 -19.046875 27.03125 -17.144531 26.03125 -15.46875 C 25.03125 -13.800781 23.671875 -12.488281 21.953125 -11.53125 C 20.234375 -10.570312 18.28125 -10.09375 16.09375 -10.09375 L 10.703125 -10.09375 L 10.703125 0 L 3.6875 0 L 3.6875 -32.28125 Z M 15.828125 -16.5625 C 17.203125 -16.5625 18.3125 -17 19.15625 -17.875 C 20.007812 -18.75 20.4375 -19.847656 20.4375 -21.171875 C 20.4375 -22.523438 20.007812 -23.640625 19.15625 -24.515625 C 18.3125 -25.390625 17.203125 -25.828125 15.828125 -25.828125 L 10.703125 -25.828125 L 10.703125 -16.5625 Z M 15.828125 -16.5625 "/></g></g></g><g fill="#000000" fill-opacity="1"><g transform="translate(191.617336, 275.422672)"><g><path d="M 14.625 0.6875 C 12.28125 0.6875 10.222656 0.21875 8.453125 -0.71875 C 6.691406 -1.65625 5.328125 -2.960938 4.359375 -4.640625 C 3.390625 -6.316406 2.90625 -8.273438 2.90625 -10.515625 L 2.90625 -24.90625 L 9.640625 -24.90625 L 9.640625 -11.296875 C 9.640625 -9.515625 10.078125 -8.125 10.953125 -7.125 C 11.828125 -6.125 13.050781 -5.625 14.625 -5.625 C 16.1875 -5.625 17.398438 -6.128906 18.265625 -7.140625 C 19.128906 -8.160156 19.5625 -9.546875 19.5625 -11.296875 L 19.5625 -24.90625 L 26.296875 -24.90625 L 26.296875 -10.515625 C 26.296875 -8.273438 25.8125 -6.316406 24.84375 -4.640625 C 23.875 -2.960938 22.507812 -1.65625 20.75 -0.71875 C 19 0.21875 16.957031 0.6875 14.625 0.6875 Z M 14.625 0.6875 "/></g></g></g><g fill="#000000" fill-opacity="1"><g transform="translate(220.814496, 275.422672)"><g><path d="M 3.234375 0 L 3.234375 -33.90625 L 9.96875 -33.90625 L 9.96875 0 Z M 3.234375 0 "/></g></g></g><g fill="#000000" fill-opacity="1"><g transform="translate(234.006261, 275.422672)"><g><path d="M 12.078125 0.6875 C 9.992188 0.6875 8.164062 0.320312 6.59375 -0.40625 C 5.03125 -1.144531 3.804688 -2.179688 2.921875 -3.515625 C 2.046875 -4.859375 1.609375 -6.421875 1.609375 -8.203125 L 8.171875 -8.203125 C 8.191406 -7.097656 8.585938 -6.269531 9.359375 -5.71875 C 10.128906 -5.164062 11.113281 -4.890625 12.3125 -4.890625 C 13.269531 -4.890625 14.097656 -5.097656 14.796875 -5.515625 C 15.503906 -5.929688 15.859375 -6.550781 15.859375 -7.375 C 15.859375 -8.238281 15.390625 -8.847656 14.453125 -9.203125 C 13.515625 -9.554688 12.382812 -9.84375 11.0625 -10.0625 C 10.082031 -10.207031 9.0625 -10.414062 8 -10.6875 C 6.9375 -10.96875 5.957031 -11.367188 5.0625 -11.890625 C 4.175781 -12.421875 3.445312 -13.144531 2.875 -14.0625 C 2.3125 -14.988281 2.03125 -16.191406 2.03125 -17.671875 C 2.03125 -19.234375 2.453125 -20.613281 3.296875 -21.8125 C 4.140625 -23.007812 5.304688 -23.9375 6.796875 -24.59375 C 8.296875 -25.257812 10.054688 -25.59375 12.078125 -25.59375 C 14.078125 -25.59375 15.820312 -25.25 17.3125 -24.5625 C 18.8125 -23.875 19.972656 -22.90625 20.796875 -21.65625 C 21.628906 -20.40625 22.046875 -18.953125 22.046875 -17.296875 L 15.640625 -17.296875 C 15.640625 -18.273438 15.304688 -19.007812 14.640625 -19.5 C 13.984375 -20 13.070312 -20.25 11.90625 -20.25 C 10.851562 -20.25 10.035156 -20.023438 9.453125 -19.578125 C 8.867188 -19.128906 8.578125 -18.550781 8.578125 -17.84375 C 8.578125 -17.019531 9.035156 -16.453125 9.953125 -16.140625 C 10.878906 -15.835938 11.988281 -15.578125 13.28125 -15.359375 C 14.300781 -15.171875 15.347656 -14.945312 16.421875 -14.6875 C 17.492188 -14.425781 18.488281 -14.035156 19.40625 -13.515625 C 20.332031 -12.992188 21.082031 -12.269531 21.65625 -11.34375 C 22.226562 -10.425781 22.515625 -9.210938 22.515625 -7.703125 C 22.515625 -6.015625 22.082031 -4.539062 21.21875 -3.28125 C 20.351562 -2.019531 19.132812 -1.039062 17.5625 -0.34375 C 16 0.34375 14.171875 0.6875 12.078125 0.6875 Z M 12.078125 0.6875 "/></g></g></g><g fill="#000000" fill-opacity="1"><g transform="translate(258.221912, 275.422672)"><g><path d="M 15.078125 0.6875 C 12.492188 0.6875 10.1875 0.113281 8.15625 -1.03125 C 6.132812 -2.1875 4.535156 -3.753906 3.359375 -5.734375 C 2.191406 -7.722656 1.609375 -9.960938 1.609375 -12.453125 C 1.609375 -14.972656 2.191406 -17.222656 3.359375 -19.203125 C 4.535156 -21.191406 6.132812 -22.753906 8.15625 -23.890625 C 10.1875 -25.023438 12.492188 -25.59375 15.078125 -25.59375 C 17.628906 -25.59375 19.921875 -25.023438 21.953125 -23.890625 C 23.984375 -22.753906 25.582031 -21.191406 26.75 -19.203125 C 27.914062 -17.222656 28.5 -14.972656 28.5 -12.453125 C 28.5 -9.960938 27.914062 -7.722656 26.75 -5.734375 C 25.582031 -3.753906 23.984375 -2.1875 21.953125 -1.03125 C 19.921875 0.113281 17.628906 0.6875 15.078125 0.6875 Z M 15.078125 -5.625 C 17.015625 -5.625 18.597656 -6.253906 19.828125 -7.515625 C 21.054688 -8.773438 21.671875 -10.421875 21.671875 -12.453125 C 21.671875 -14.484375 21.054688 -16.128906 19.828125 -17.390625 C 18.597656 -18.648438 17.015625 -19.28125 15.078125 -19.28125 C 13.109375 -19.28125 11.507812 -18.648438 10.28125 -17.390625 C 9.050781 -16.128906 8.4375 -14.484375 8.4375 -12.453125 C 8.4375 -10.421875 9.050781 -8.773438 10.28125 -7.515625 C 11.507812 -6.253906 13.109375 -5.625 15.078125 -5.625 Z M 15.078125 -5.625 "/></g></g></g><path fill="#334db3" d="M 191.304688 106.582031 L 200 176.804688 C 196.371094 173.664062 192.359375 170.21875 187.910156 166.386719 C 177.664062 157.574219 170.535156 148.941406 165.601562 140.9375 L 180.511719 140.9375 C 182.1875 140.9375 183.640625 139.78125 184.011719 138.152344 L 191.304688 106.582031 " fill-opacity="1" fill-rule="nonzero"/><path fill="#334db3" d="M 314.207031 166.386719 C 273.0625 201.785156 269.714844 204.660156 251.058594 230.972656 C 237.097656 211.289062 231.710938 204.71875 212.644531 187.832031 L 227.578125 121.722656 L 243.960938 169.78125 C 244.453125 171.199219 245.761719 172.167969 247.253906 172.210938 C 248.75 172.261719 250.117188 171.378906 250.691406 169.996094 L 262.710938 140.9375 L 305.59375 140.9375 C 307.578125 140.9375 309.1875 139.328125 309.1875 137.34375 C 309.1875 135.359375 307.578125 133.75 305.59375 133.75 L 260.308594 133.75 C 258.851562 133.75 257.542969 134.628906 256.988281 135.972656 L 247.695312 158.429688 L 230.28125 107.359375 C 229.761719 105.835938 228.296875 104.851562 226.6875 104.929688 C 225.085938 105.015625 223.726562 106.160156 223.375 107.726562 L 207.429688 178.300781 L 195.941406 85.527344 C 195.722656 83.800781 194.300781 82.472656 192.558594 82.378906 C 190.835938 82.285156 189.261719 83.464844 188.871094 85.160156 L 177.652344 133.75 L 161.65625 133.75 C 151.726562 113.253906 155.859375 98.460938 155.859375 98.460938 C 155.859375 98.460938 157.292969 64.492188 196.039062 56.359375 C 234.789062 48.230469 251.058594 84.585938 251.058594 84.585938 C 251.058594 84.585938 267.320312 48.230469 306.066406 56.359375 C 344.824219 64.492188 346.253906 98.460938 346.253906 98.460938 C 346.253906 98.460938 355.347656 130.992188 314.207031 166.386719 " fill-opacity="1" fill-rule="nonzero"/><g clip-path="url(#fcdbac5ddf)"><path fill="#334db3" d="M 161.65625 133.75 C 162.777344 136.078125 164.085938 138.480469 165.601562 140.9375 L 150.640625 140.9375 L 139.664062 169.894531 C 139.082031 171.425781 137.539062 172.378906 135.910156 172.191406 C 134.28125 172.011719 132.976562 170.753906 132.742188 169.136719 L 127.089844 129.730469 L 116.105469 184.527344 C 115.769531 186.207031 114.289062 187.417969 112.582031 187.417969 L 112.519531 187.417969 C 110.785156 187.386719 109.320312 186.121094 109.03125 184.410156 C 104.027344 154.453125 96.148438 109.480469 91.859375 89.335938 C 88.121094 101.976562 82.253906 123.460938 78.3125 138.265625 C 77.898438 139.839844 76.464844 140.9375 74.839844 140.9375 L 30.628906 140.9375 C 28.644531 140.9375 27.035156 139.328125 27.035156 137.34375 C 27.035156 135.359375 28.644531 133.75 30.628906 133.75 L 72.082031 133.75 C 76.988281 115.332031 86.96875 78.554688 89.105469 75.347656 C 89.960938 74.066406 91.476562 73.441406 92.972656 73.757812 C 95.636719 74.332031 96.28125 76.898438 97.34375 81.148438 C 98.054688 83.996094 98.960938 88.136719 100.046875 93.449219 C 101.851562 102.335938 104.164062 114.679688 106.933594 130.128906 C 109.105469 142.253906 111.214844 154.441406 112.871094 164.074219 L 124.152344 107.8125 C 124.496094 106.101562 126.027344 104.871094 127.773438 104.929688 C 129.527344 104.980469 130.988281 106.28125 131.230469 108.015625 L 137.882812 154.316406 L 144.804688 136.066406 C 145.328125 134.671875 146.671875 133.75 148.164062 133.75 L 161.65625 133.75 " fill-opacity="1" fill-rule="nonzero"/></g><path fill="#334db3" d="M 212.644531 187.832031 L 209.898438 199.980469 C 209.527344 201.628906 208.066406 202.785156 206.394531 202.785156 C 206.335938 202.785156 206.277344 202.785156 206.214844 202.777344 C 204.464844 202.691406 203.042969 201.371094 202.828125 199.628906 L 200 176.804688 C 204.824219 180.976562 208.988281 184.597656 212.644531 187.832031 " fill-opacity="1" fill-rule="nonzero"/></svg>